<svg width="82" height="12" viewBox="0 0 82 12" fill="none" xmlns="http://www.w3.org/2000/svg">
<path d="M3.486 11.105C3.42533 11.105 3.30167 11.1003 3.115 11.091C2.92833 11.0817 2.72067 11.07 2.492 11.056C2.268 11.042 2.06267 11.028 1.876 11.014C1.68933 11.0047 1.56567 11 1.505 11H0.567L2.009 0.541999H2.982C3.04267 0.541999 3.178 0.537333 3.388 0.528C3.60267 0.518666 3.83833 0.507 4.095 0.493C4.35633 0.479 4.58967 0.467333 4.795 0.458C5.005 0.444 5.13567 0.437 5.187 0.437C5.95233 0.437 6.58233 0.530333 7.077 0.716999C7.57633 0.898999 7.945 1.165 8.183 1.515C8.42567 1.86033 8.547 2.285 8.547 2.789C8.547 3.489 8.36733 4.077 8.008 4.553C7.65333 5.02433 7.14 5.34167 6.468 5.505C6.874 5.58433 7.22167 5.722 7.511 5.918C7.80033 6.114 8.022 6.359 8.176 6.653C8.33467 6.947 8.41633 7.283 8.421 7.661C8.42567 8.45433 8.23433 9.10533 7.847 9.614C7.45967 10.118 6.89733 10.4937 6.16 10.741C5.42267 10.9837 4.53133 11.105 3.486 11.105ZM3.815 9.614C4.235 9.614 4.62467 9.54167 4.984 9.397C5.34333 9.25233 5.63267 9.04467 5.852 8.774C6.07133 8.49867 6.181 8.172 6.181 7.794C6.181 7.23867 6.02233 6.85367 5.705 6.639C5.38767 6.42433 4.90233 6.317 4.249 6.317C4.081 6.317 3.91767 6.31933 3.759 6.324C3.605 6.32867 3.45567 6.33567 3.311 6.345L2.877 9.551C2.95167 9.565 3.04033 9.57667 3.143 9.586C3.25033 9.59533 3.36 9.60233 3.472 9.607C3.58867 9.61167 3.703 9.614 3.815 9.614ZM3.521 4.882C3.633 4.88667 3.74733 4.89367 3.864 4.903C3.98533 4.90767 4.13 4.91 4.298 4.91C4.956 4.91 5.467 4.75367 5.831 4.441C6.19967 4.12367 6.384 3.65233 6.384 3.027C6.384 2.61633 6.25333 2.327 5.992 2.159C5.73067 1.991 5.32933 1.90233 4.788 1.893C4.69 1.893 4.58967 1.89533 4.487 1.9C4.389 1.9 4.291 1.90467 4.193 1.914C4.09967 1.91867 4.011 1.92567 3.927 1.935L3.521 4.882ZM8.26077 11L13.3288 0.541999H15.9468L17.6198 11H15.4988L15.2188 8.823H11.5018L10.5708 11H8.26077ZM12.1108 7.36H15.0298L14.4348 2.712L14.3788 1.907L14.0848 2.712L12.1108 7.36ZM20.7279 11.112C20.5272 11.112 20.2962 11.0933 20.0349 11.056C19.7735 11.0187 19.5122 10.9697 19.2509 10.909C18.9895 10.8437 18.7539 10.7737 18.5439 10.699C18.3339 10.6197 18.1799 10.5403 18.0819 10.461L18.7679 8.746C18.9032 8.858 19.0875 8.96767 19.3209 9.075C19.5589 9.18233 19.8109 9.26867 20.0769 9.334C20.3475 9.39933 20.5925 9.432 20.8119 9.432C21.1665 9.432 21.4629 9.38533 21.7009 9.292C21.9435 9.194 22.1255 9.054 22.2469 8.872C22.3729 8.68533 22.4359 8.459 22.4359 8.193C22.4359 7.86167 22.3239 7.56067 22.0999 7.29C21.8805 7.01933 21.5445 6.723 21.0919 6.401C20.7232 6.13033 20.3989 5.84567 20.1189 5.547C19.8389 5.24367 19.6195 4.91933 19.4609 4.574C19.3022 4.224 19.2229 3.846 19.2229 3.44C19.2229 2.79133 19.3769 2.24533 19.6849 1.802C19.9929 1.354 20.4129 1.01333 20.9449 0.78C21.4769 0.546666 22.0742 0.429999 22.7369 0.429999C23.2875 0.429999 23.7775 0.490666 24.2069 0.611999C24.6409 0.728666 24.9605 0.863999 25.1659 1.018L24.5009 2.677C24.3329 2.50433 24.0762 2.362 23.7309 2.25C23.3855 2.138 23.0472 2.082 22.7159 2.082C22.4219 2.082 22.1652 2.12633 21.9459 2.215C21.7312 2.299 21.5632 2.42267 21.4419 2.586C21.3205 2.74467 21.2575 2.94067 21.2529 3.174C21.2529 3.398 21.3159 3.61967 21.4419 3.839C21.5725 4.05367 21.7429 4.26367 21.9529 4.469C22.1675 4.67433 22.3985 4.87267 22.6459 5.064C23.0379 5.358 23.3809 5.652 23.6749 5.946C23.9735 6.24 24.2022 6.55033 24.3609 6.877C24.5242 7.20367 24.6059 7.563 24.6059 7.955C24.6059 8.67367 24.4332 9.26633 24.0879 9.733C23.7472 10.195 23.2852 10.5403 22.7019 10.769C22.1185 10.9977 21.4605 11.112 20.7279 11.112ZM25.7493 11L27.1913 0.541999H29.2353L28.5633 5.323L32.5253 0.541999H34.9543L30.8103 5.162C30.8989 5.316 30.9876 5.48167 31.0763 5.659C31.1696 5.83167 31.2793 6.04167 31.4053 6.289C31.5313 6.53167 31.6853 6.83267 31.8673 7.192C32.0539 7.55133 32.2826 7.99467 32.5533 8.522C32.6793 8.76467 32.8053 9.005 32.9313 9.243C33.0573 9.47633 33.1809 9.70033 33.3023 9.915C33.4236 10.125 33.5379 10.321 33.6453 10.503C33.7573 10.685 33.8599 10.8507 33.9533 11H31.4613C31.4426 10.9673 31.3983 10.8857 31.3283 10.755C31.2629 10.6243 31.1813 10.461 31.0833 10.265C30.9853 10.0643 30.8803 9.84267 30.7683 9.6C30.6563 9.35733 30.5419 9.10533 30.4253 8.844L29.4173 6.688L28.2133 7.962L27.7863 11H25.7493ZM34.7057 11L36.1477 0.541999H42.1047L41.9087 2.187L38.0307 2.159L37.6667 4.847L40.5717 4.805L40.3687 6.471L37.4497 6.401L37.0367 9.39L41.5027 9.313L41.2927 11H34.7057ZM44.5144 11L45.7394 2.11L43.1424 2.187L43.4084 0.541999H50.6534L50.4154 2.187L47.8674 2.11L46.6494 11H44.5144ZM53.5387 11.105C53.4781 11.105 53.3544 11.1003 53.1677 11.091C52.9811 11.0817 52.7734 11.07 52.5447 11.056C52.3207 11.042 52.1154 11.028 51.9287 11.014C51.7421 11.0047 51.6184 11 51.5577 11H50.6197L52.0617 0.541999H53.0347C53.0954 0.541999 53.2307 0.537333 53.4407 0.528C53.6554 0.518666 53.8911 0.507 54.1477 0.493C54.4091 0.479 54.6424 0.467333 54.8477 0.458C55.0577 0.444 55.1884 0.437 55.2397 0.437C56.0051 0.437 56.6351 0.530333 57.1297 0.716999C57.6291 0.898999 57.9977 1.165 58.2357 1.515C58.4784 1.86033 58.5997 2.285 58.5997 2.789C58.5997 3.489 58.4201 4.077 58.0607 4.553C57.7061 5.02433 57.1927 5.34167 56.5207 5.505C56.9267 5.58433 57.2744 5.722 57.5637 5.918C57.8531 6.114 58.0747 6.359 58.2287 6.653C58.3874 6.947 58.4691 7.283 58.4737 7.661C58.4784 8.45433 58.2871 9.10533 57.8997 9.614C57.5124 10.118 56.9501 10.4937 56.2127 10.741C55.4754 10.9837 54.5841 11.105 53.5387 11.105ZM53.8677 9.614C54.2877 9.614 54.6774 9.54167 55.0367 9.397C55.3961 9.25233 55.6854 9.04467 55.9047 8.774C56.1241 8.49867 56.2337 8.172 56.2337 7.794C56.2337 7.23867 56.0751 6.85367 55.7577 6.639C55.4404 6.42433 54.9551 6.317 54.3017 6.317C54.1337 6.317 53.9704 6.31933 53.8117 6.324C53.6577 6.32867 53.5084 6.33567 53.3637 6.345L52.9297 9.551C53.0044 9.565 53.0931 9.57667 53.1957 9.586C53.3031 9.59533 53.4127 9.60233 53.5247 9.607C53.6414 9.61167 53.7557 9.614 53.8677 9.614ZM53.5737 4.882C53.6857 4.88667 53.8001 4.89367 53.9167 4.903C54.0381 4.90767 54.1827 4.91 54.3507 4.91C55.0087 4.91 55.5197 4.75367 55.8837 4.441C56.2524 4.12367 56.4367 3.65233 56.4367 3.027C56.4367 2.61633 56.3061 2.327 56.0447 2.159C55.7834 1.991 55.3821 1.90233 54.8407 1.893C54.7427 1.893 54.6424 1.89533 54.5397 1.9C54.4417 1.9 54.3437 1.90467 54.2457 1.914C54.1524 1.91867 54.0637 1.92567 53.9797 1.935L53.5737 4.882ZM58.3135 11L63.3815 0.541999H65.9995L67.6725 11H65.5515L65.2715 8.823H61.5545L60.6235 11H58.3135ZM62.1635 7.36H65.0825L64.4875 2.712L64.4315 1.907L64.1375 2.712L62.1635 7.36ZM68.6666 11L70.1086 0.541999H72.2226L71.0046 9.327L74.5536 9.264L74.3016 11H68.6666ZM75.7623 11L77.2043 0.541999H79.3183L78.1003 9.327L81.6493 9.264L81.3973 11H75.7623Z" fill="black"/>
</svg>
