<svg width="94" height="14" viewBox="0 0 94 14" fill="none" xmlns="http://www.w3.org/2000/svg">
<path d="M3.984 13.12C3.91467 13.12 3.77333 13.1147 3.56 13.104C3.34667 13.0933 3.10933 13.08 2.848 13.064C2.592 13.048 2.35733 13.032 2.144 13.016C1.93067 13.0053 1.78933 13 1.72 13H0.648L2.296 1.048H3.408C3.47733 1.048 3.632 1.04267 3.872 1.032C4.11733 1.02133 4.38667 1.008 4.68 0.992C4.97867 0.976 5.24533 0.962666 5.48 0.952C5.72 0.936 5.86933 0.927999 5.928 0.927999C6.80267 0.927999 7.52267 1.03467 8.088 1.248C8.65867 1.456 9.08 1.76 9.352 2.16C9.62933 2.55467 9.768 3.04 9.768 3.616C9.768 4.416 9.56267 5.088 9.152 5.632C8.74667 6.17067 8.16 6.53333 7.392 6.72C7.856 6.81067 8.25333 6.968 8.584 7.192C8.91467 7.416 9.168 7.696 9.344 8.032C9.52533 8.368 9.61867 8.752 9.624 9.184C9.62933 10.0907 9.41067 10.8347 8.968 11.416C8.52533 11.992 7.88267 12.4213 7.04 12.704C6.19733 12.9813 5.17867 13.12 3.984 13.12ZM4.36 11.416C4.84 11.416 5.28533 11.3333 5.696 11.168C6.10667 11.0027 6.43733 10.7653 6.688 10.456C6.93867 10.1413 7.064 9.768 7.064 9.336C7.064 8.70133 6.88267 8.26133 6.52 8.016C6.15733 7.77067 5.60267 7.648 4.856 7.648C4.664 7.648 4.47733 7.65067 4.296 7.656C4.12 7.66133 3.94933 7.66933 3.784 7.68L3.288 11.344C3.37333 11.36 3.47467 11.3733 3.592 11.384C3.71467 11.3947 3.84 11.4027 3.968 11.408C4.10133 11.4133 4.232 11.416 4.36 11.416ZM4.024 6.008C4.152 6.01333 4.28267 6.02133 4.416 6.032C4.55467 6.03733 4.72 6.04 4.912 6.04C5.664 6.04 6.248 5.86133 6.664 5.504C7.08533 5.14133 7.296 4.60267 7.296 3.888C7.296 3.41867 7.14667 3.088 6.848 2.896C6.54933 2.704 6.09067 2.60267 5.472 2.592C5.36 2.592 5.24533 2.59467 5.128 2.6C5.016 2.6 4.904 2.60533 4.792 2.616C4.68533 2.62133 4.584 2.62933 4.488 2.64L4.024 6.008ZM9.44087 13L15.2329 1.048H18.2249L20.1369 13H17.7129L17.3929 10.512H13.1449L12.0809 13H9.44087ZM13.8409 8.84H17.1769L16.4969 3.528L16.4329 2.608L16.0969 3.528L13.8409 8.84ZM23.689 13.128C23.4597 13.128 23.1957 13.1067 22.897 13.064C22.5983 13.0213 22.2997 12.9653 22.001 12.896C21.7023 12.8213 21.433 12.7413 21.193 12.656C20.953 12.5653 20.777 12.4747 20.665 12.384L21.449 10.424C21.6037 10.552 21.8143 10.6773 22.081 10.8C22.353 10.9227 22.641 11.0213 22.945 11.096C23.2543 11.1707 23.5343 11.208 23.785 11.208C24.1903 11.208 24.529 11.1547 24.801 11.048C25.0783 10.936 25.2863 10.776 25.425 10.568C25.569 10.3547 25.641 10.096 25.641 9.792C25.641 9.41333 25.513 9.06933 25.257 8.76C25.0063 8.45067 24.6223 8.112 24.105 7.744C23.6837 7.43467 23.313 7.10933 22.993 6.768C22.673 6.42133 22.4223 6.05067 22.241 5.656C22.0597 5.256 21.969 4.824 21.969 4.36C21.969 3.61867 22.145 2.99467 22.497 2.488C22.849 1.976 23.329 1.58667 23.937 1.32C24.545 1.05333 25.2277 0.919999 25.985 0.919999C26.6143 0.919999 27.1743 0.989333 27.665 1.128C28.161 1.26133 28.5263 1.416 28.761 1.592L28.001 3.488C27.809 3.29067 27.5157 3.128 27.121 3C26.7263 2.872 26.3397 2.808 25.961 2.808C25.625 2.808 25.3317 2.85867 25.081 2.96C24.8357 3.056 24.6437 3.19733 24.505 3.384C24.3663 3.56533 24.2943 3.78933 24.289 4.056C24.289 4.312 24.361 4.56533 24.505 4.816C24.6543 5.06133 24.849 5.30133 25.089 5.536C25.3343 5.77067 25.5983 5.99733 25.881 6.216C26.329 6.552 26.721 6.888 27.057 7.224C27.3983 7.56 27.6597 7.91467 27.841 8.288C28.0277 8.66133 28.121 9.072 28.121 9.52C28.121 10.3413 27.9237 11.0187 27.529 11.552C27.1397 12.08 26.6117 12.4747 25.945 12.736C25.2783 12.9973 24.5263 13.128 23.689 13.128ZM29.4278 13L31.0758 1.048H33.4118L32.6438 6.512L37.1718 1.048H39.9478L35.2118 6.328C35.3131 6.504 35.4144 6.69333 35.5158 6.896C35.6224 7.09333 35.7478 7.33333 35.8918 7.616C36.0358 7.89333 36.2118 8.23733 36.4198 8.648C36.6331 9.05867 36.8944 9.56533 37.2038 10.168C37.3478 10.4453 37.4918 10.72 37.6358 10.992C37.7798 11.2587 37.9211 11.5147 38.0598 11.76C38.1984 12 38.3291 12.224 38.4518 12.432C38.5798 12.64 38.6971 12.8293 38.8038 13H35.9558C35.9344 12.9627 35.8838 12.8693 35.8038 12.72C35.7291 12.5707 35.6358 12.384 35.5238 12.16C35.4118 11.9307 35.2918 11.6773 35.1638 11.4C35.0358 11.1227 34.9051 10.8347 34.7718 10.536L33.6198 8.072L32.2438 9.528L31.7558 13H29.4278ZM39.6636 13L41.3116 1.048H48.1196L47.8956 2.928L43.4636 2.896L43.0476 5.968L46.3676 5.92L46.1356 7.824L42.7996 7.744L42.3276 11.16L47.4316 11.072L47.1916 13H39.6636ZM50.8736 13L52.2736 2.84L49.3056 2.928L49.6096 1.048H57.8896L57.6176 2.928L54.7056 2.84L53.3136 13H50.8736ZM61.1871 13.12C61.1178 13.12 60.9765 13.1147 60.7631 13.104C60.5498 13.0933 60.3125 13.08 60.0511 13.064C59.7951 13.048 59.5605 13.032 59.3471 13.016C59.1338 13.0053 58.9925 13 58.9231 13H57.8511L59.4991 1.048H60.6111C60.6805 1.048 60.8351 1.04267 61.0751 1.032C61.3205 1.02133 61.5898 1.008 61.8831 0.992C62.1818 0.976 62.4485 0.962666 62.6831 0.952C62.9231 0.936 63.0725 0.927999 63.1311 0.927999C64.0058 0.927999 64.7258 1.03467 65.2911 1.248C65.8618 1.456 66.2831 1.76 66.5551 2.16C66.8325 2.55467 66.9711 3.04 66.9711 3.616C66.9711 4.416 66.7658 5.088 66.3551 5.632C65.9498 6.17067 65.3631 6.53333 64.5951 6.72C65.0591 6.81067 65.4565 6.968 65.7871 7.192C66.1178 7.416 66.3711 7.696 66.5471 8.032C66.7285 8.368 66.8218 8.752 66.8271 9.184C66.8325 10.0907 66.6138 10.8347 66.1711 11.416C65.7285 11.992 65.0858 12.4213 64.2431 12.704C63.4005 12.9813 62.3818 13.12 61.1871 13.12ZM61.5631 11.416C62.0431 11.416 62.4885 11.3333 62.8991 11.168C63.3098 11.0027 63.6405 10.7653 63.8911 10.456C64.1418 10.1413 64.2671 9.768 64.2671 9.336C64.2671 8.70133 64.0858 8.26133 63.7231 8.016C63.3605 7.77067 62.8058 7.648 62.0591 7.648C61.8671 7.648 61.6805 7.65067 61.4991 7.656C61.3231 7.66133 61.1525 7.66933 60.9871 7.68L60.4911 11.344C60.5765 11.36 60.6778 11.3733 60.7951 11.384C60.9178 11.3947 61.0431 11.4027 61.1711 11.408C61.3045 11.4133 61.4351 11.416 61.5631 11.416ZM61.2271 6.008C61.3551 6.01333 61.4858 6.02133 61.6191 6.032C61.7578 6.03733 61.9231 6.04 62.1151 6.04C62.8671 6.04 63.4511 5.86133 63.8671 5.504C64.2885 5.14133 64.4991 4.60267 64.4991 3.888C64.4991 3.41867 64.3498 3.088 64.0511 2.896C63.7525 2.704 63.2938 2.60267 62.6751 2.592C62.5631 2.592 62.4485 2.59467 62.3311 2.6C62.2191 2.6 62.1071 2.60533 61.9951 2.616C61.8885 2.62133 61.7871 2.62933 61.6911 2.64L61.2271 6.008ZM66.644 13L72.436 1.048H75.428L77.34 13H74.916L74.596 10.512H70.348L69.284 13H66.644ZM71.044 8.84H74.38L73.7 3.528L73.636 2.608L73.3 3.528L71.044 8.84ZM78.4761 13L80.1241 1.048H82.5401L81.1481 11.088L85.2041 11.016L84.9161 13H78.4761ZM86.5855 13L88.2335 1.048H90.6495L89.2575 11.088L93.3135 11.016L93.0255 13H86.5855Z" fill="black"/>
</svg>
